<svg width="28" height="28" viewBox="0 0 28 28" fill="none" xmlns="http://www.w3.org/2000/svg">
<path d="M15.1683 4.94891C15.153 4.68671 15.0201 4.44495 14.8058 4.28902L9.15426 0.174681C8.87262 -0.0328418 8.49603 -0.0550151 8.18997 0.105783C7.88233 0.27012 7.69837 0.591938 7.71829 0.935265L7.89764 4.02676L6.99843 4.07708C4.27095 4.2298 2.17919 6.53284 2.33461 9.21206L2.91144 19.1528C1.12472 19.8201 -0.107183 21.5463 0.00737176 23.5208C0.148891 25.9599 2.27663 27.8245 4.75974 27.6855C7.24291 27.5464 9.14108 25.4565 8.99956 23.0173C8.88501 21.0429 7.46149 19.4654 5.60908 19.0018L5.03231 9.06099C4.9616 7.84306 5.91227 6.79638 7.15222 6.72693L8.05143 6.67661L8.23078 9.7681C8.25071 10.1114 8.4707 10.4106 8.79534 10.5396C8.91974 10.588 9.0513 10.6083 9.18128 10.601C9.38764 10.5895 9.58821 10.509 9.74544 10.3635L14.8845 5.64502C15.0794 5.4662 15.1835 5.21118 15.1683 4.94891ZM6.30192 23.1684C6.35844 24.1424 5.59759 24.9801 4.60595 25.0356C3.6143 25.0911 2.76153 24.3438 2.70501 23.3698C2.6485 22.3957 3.40934 21.558 4.40093 21.5025C5.39258 21.447 6.24535 22.1943 6.30192 23.1684ZM23.005 0.0794626C20.5219 0.218474 18.6236 2.30841 18.7652 4.74759C18.8797 6.72201 20.3033 8.29952 22.1556 8.76306L22.7324 18.7039C22.8031 19.9218 21.8525 20.9685 20.6125 21.038L19.7133 21.0883L19.5339 17.9968C19.514 17.6535 19.294 17.3543 18.9694 17.2253C18.6477 17.1014 18.276 17.1638 18.0193 17.4014L12.8802 22.1199C12.6854 22.2987 12.5812 22.5537 12.5964 22.816C12.6116 23.0782 12.7446 23.32 12.9589 23.4759L18.6105 27.5902C18.7835 27.7173 18.9921 27.7748 19.1984 27.7633C19.3275 27.756 19.4568 27.7211 19.5748 27.6591C19.8824 27.4948 20.0664 27.173 20.0464 26.8296L19.867 23.7381L20.7662 23.6878C23.4938 23.5351 25.5855 21.232 25.4301 18.5528L24.8533 8.61205C26.6401 7.94475 27.8719 6.2186 27.7573 4.24412C27.6158 1.805 25.4882 -0.0596046 23.005 0.0794626ZM23.3637 6.26239C22.3721 6.31791 21.5193 5.5706 21.4628 4.59652C21.4063 3.6225 22.1671 2.78483 23.1587 2.72931C24.1504 2.6738 25.0031 3.42111 25.0597 4.39519C25.1163 5.36927 24.3554 6.20688 23.3637 6.26239Z" fill="#34D578"/>
</svg>
